<svg xmlns="http://www.w3.org/2000/svg" viewBox="0 0 256 256"><g id="out"><path d="M114.38,255.28l-50-50L100.72,59.76l25.9-9.24a34.25,34.25,0,0,1,35.76,8.06l91.67,91.79A128,128,0,1,0,114.38,255.28Z" style="fill:#db3938"/><path d="M254.05,150.37,162.38,58.58a34.25,34.25,0,0,0-35.76-8.06l-25.9,9.24L64.39,205.31l50,50q4.34.45,8.75.62h9.74A128,128,0,0,0,254.05,150.37Z" style="fill:#b4332f"/><path d="M174.05,101.62h-1.68V87a44.37,44.37,0,1,0-88.74,0v14.58H82a23,23,0,0,0-23,23v65.74a23,23,0,0,0,23,23h92.1a23,23,0,0,0,23-23V124.61A23,23,0,0,0,174.05,101.62ZM138.7,181H117.3l4.78-21.57a13.42,13.42,0,1,1,11.84,0Zm16.58-79.37H100.72V87a27.28,27.28,0,1,1,54.56,0Z" style="fill:#fff"/></g></svg>