<svg xmlns="http://www.w3.org/2000/svg" xmlns:xlink="http://www.w3.org/1999/xlink" viewBox="0 0 256 256"><defs><clipPath id="clip-path"><circle cx="128" cy="-328.91" r="128" style="fill:none"/></clipPath></defs><g id="out-2" data-name="out"><circle cx="128" cy="128" r="128" style="fill:#3e68b1"/><path d="M255,111.82,201.8,58.69c-.75-.74-1.53-1.45-2.34-2.12a40.14,40.14,0,0,1,9.17,25.58v91.7A40,40,0,0,1,168.77,214H106.29a39.58,39.58,0,0,1-26.75-10.41,13.17,13.17,0,0,0,.94,1l51.27,51.32A128,128,0,0,0,256,128,130.89,130.89,0,0,0,255,111.82Z" style="fill:#3e5aa0"/><path d="M83.66,173.85a22.73,22.73,0,0,0,22.63,22.77h62.48a22.73,22.73,0,0,0,22.63-22.77V82.15a22.73,22.73,0,0,0-22.63-22.77H106.29A22.73,22.73,0,0,0,83.66,82.15V90.3H66.43c2.37,2.84,7.69,7.73,13.18,13.06l8.14,8.17h29.7V89.85l49.65,37.48-49.65,38.24V141.4H47.37l19.38,19.4c1.18,1.16,2.12,2,2.82,2.76H83.66Z" style="fill:#3e5aa0"/><path d="M199.46,56.57A39.68,39.68,0,0,0,168.77,42H106.29A40,40,0,0,0,66.43,82.15v8l.14.16H83.66V82.15a22.73,22.73,0,0,1,22.63-22.77h62.48A22.73,22.73,0,0,1,191.4,82.15v91.7a22.73,22.73,0,0,1-22.63,22.77H106.29a22.73,22.73,0,0,1-22.63-22.77V163.56H66.43v10.29a40.2,40.2,0,0,0,13.11,29.73A39.58,39.58,0,0,0,106.29,214h62.48a40,40,0,0,0,39.86-40.14V82.15A40.14,40.14,0,0,0,199.46,56.57Z" style="fill:#fff"/><polygon points="117.45 165.57 167.1 127.33 117.45 89.85 117.45 111.53 87.75 111.53 47.37 111.53 47.37 141.4 117.45 141.4 117.45 165.57" style="fill:#fff"/></g></svg>